<svg width="360" height="402" viewBox="0 0 360 402" fill="none" xmlns="http://www.w3.org/2000/svg">
<path opacity="0.5" d="M310.258 251.342L321.097 258.943V289.292L310.258 281.705V251.342Z" fill="#758EF5"/>
<path opacity="0.2" d="M299.42 258.943L310.258 266.53V281.704L299.42 274.117V258.943Z" fill="#758EF5"/>
<path opacity="0.5" d="M288.581 205.805L299.419 213.406V274.117L288.581 266.53V205.805Z" fill="#758EF5"/>
<path opacity="0.2" d="M277.731 183.043L288.581 190.63V266.53L277.731 258.942V183.043Z" fill="#758EF5"/>
<path opacity="0.5" d="M266.893 190.63L277.731 198.217V258.942L266.893 251.342V190.63Z" fill="#758EF5"/>
<path opacity="0.2" d="M256.053 137.506L266.892 145.093V251.342L256.053 243.754V137.506Z" fill="#758EF5"/>
<path opacity="0.5" d="M245.216 145.094L256.054 152.681V243.755L245.216 236.168V145.094Z" fill="#758EF5"/>
<path opacity="0.2" d="M234.377 152.68L245.215 160.267V236.167L234.377 228.58V152.68Z" fill="#758EF5"/>
<path opacity="0.5" d="M223.528 114.731L234.378 122.331V228.58L223.528 220.993V114.731Z" fill="#758EF5"/>
<path opacity="0.2" d="M212.689 76.7941L223.527 84.3814V220.993L212.689 213.392V76.7941Z" fill="#758EF5"/>
<path opacity="0.5" d="M201.851 84.3819L212.689 91.9691V213.392L201.851 205.805V84.3819Z" fill="#758EF5"/>
<path opacity="0.2" d="M191.012 46.4315L201.851 54.0188V205.805L191.012 198.217V46.4315Z" fill="#758EF5"/>
<path opacity="0.5" d="M180.162 38.8441L191.011 46.4314V198.217L180.162 190.63V38.8441Z" fill="#758EF5"/>
<path opacity="0.2" d="M169.324 0.894737L180.163 8.48199V190.63L169.324 183.043V0.894737Z" fill="#758EF5"/>
<path opacity="0.4" d="M179.972 401.895C234.814 401.895 279.273 370.77 279.273 332.377C279.273 293.983 234.814 262.858 179.972 262.858C125.129 262.858 80.6709 293.983 80.6709 332.377C80.6709 370.77 125.129 401.895 179.972 401.895Z" fill="#0F054C"/>
<path d="M179.972 374.255C242.392 374.255 292.994 338.83 292.994 295.131C292.994 251.432 242.392 216.007 179.972 216.007C117.551 216.007 66.9497 251.432 66.9497 295.131C66.9497 338.83 117.551 374.255 179.972 374.255Z" fill="url(#paint0_linear_104_3872)"/>
<path opacity="0.48" d="M293.006 269.077H290.212C285.676 254.987 275.575 241.587 259.898 230.626C215.762 199.722 144.194 199.722 100.114 230.626C85.3085 240.991 75.5315 253.51 70.6039 266.747H67.0618V284.292C66.1791 305.306 77.1964 326.523 100.114 342.552C144.25 373.443 215.818 373.443 259.954 342.552C282.022 327.093 293.062 306.851 293.062 286.596L293.006 269.077Z" fill="url(#paint1_linear_104_3872)"/>
<path opacity="0.48" d="M290.212 262.275C290.056 261.788 289.888 261.3 289.709 260.812V249.282H283.787V248.456C282.24 245.938 280.56 243.544 278.759 241.288V249.282H275.407V237.319C273.835 235.584 272.152 233.886 270.356 232.224V249.309H267.004V229.189C265.384 227.835 263.652 226.48 261.931 225.206V249.242H258.579V222.822C256.926 221.693 255.231 220.609 253.495 219.57V249.242H250.143V217.687C248.467 216.783 246.769 215.88 245.048 214.977V249.242H241.696V221.534H236.589V249.282H233.237V229.189H228.109V249.323H224.756V236.804H219.617V249.323H216.332V244.432H211.225V249.323H148.809V244.432H143.646V249.323H140.361V236.804H135.244V249.323H131.892V229.189H126.763V249.323H123.411V221.534H118.304V249.282H114.952V214.99C113.232 215.84 111.533 216.743 109.857 217.7V249.323H106.505V219.583C104.773 220.627 103.075 221.697 101.421 222.822V249.282H98.0688V225.206C96.3034 226.489 94.6124 227.812 92.996 229.176V249.282H89.6438V232.157C87.8449 233.81 86.1688 235.517 84.5933 237.251V249.282H81.2412V241.153C79.4465 243.411 77.7674 245.8 76.213 248.307V249.214H70.2909V259.85H67.7769V289.264C68.757 294.756 70.4504 300.025 72.7939 304.872V286.541H76.213V311.159C77.7613 313.667 79.4408 316.052 81.2412 318.299V286.541H84.5933V322.282C86.1688 324.003 87.856 325.71 89.6438 327.363V286.541H92.996V330.344C94.6199 331.699 96.3108 333.026 98.0688 334.327V286.541H101.421V336.671C103.075 337.782 104.769 338.861 106.505 339.909V286.541H109.857V341.86C111.533 342.763 113.232 343.667 114.952 344.57V286.582H118.304V346.196C119.98 346.968 121.657 347.7 123.411 348.404V286.541H126.763V349.596C128.461 350.233 130.115 350.829 131.892 351.398V286.541H135.244V352.482C136.942 352.984 138.652 353.471 140.384 353.919V286.582H143.669V354.745C145.378 355.151 147.099 355.517 148.831 355.87V286.541H152.105V356.439C153.815 356.75 155.546 357.021 157.278 357.279V286.541H160.53V357.712C162.251 357.915 163.983 358.092 165.726 358.254V286.541H168.955V358.512C170.698 358.62 172.43 358.715 174.173 358.782V286.541H177.391V358.864C179.149 358.864 180.903 358.864 182.654 358.864V286.541H185.872V358.782C187.615 358.782 189.347 358.62 191.09 358.512V286.541H194.319V358.254C196.062 358.092 197.794 357.915 199.515 357.699V286.541H202.767V357.265C204.499 357.021 206.23 356.737 207.94 356.439V286.541H211.225V355.815C212.957 355.477 214.678 355.097 216.387 354.691V286.541H219.672V353.837C221.404 353.377 223.114 352.902 224.812 352.387V286.541H228.165V351.385C229.885 350.816 231.595 350.206 233.293 349.583V286.541H236.645V348.282C238.366 347.591 240.076 346.927 241.752 346.087V286.541H245.104V344.502C246.825 343.649 248.523 342.768 250.199 341.792V286.541H253.551V339.909C255.287 338.861 256.982 337.782 258.635 336.671V286.541H261.987V334.3C263.753 332.999 265.444 331.667 267.06 330.303V286.541H270.412V327.322C272.2 325.651 273.884 323.953 275.463 322.228V286.541H278.815V318.258C280.619 316.006 282.298 313.611 283.843 311.091V286.541H287.206V304.818C289.568 299.928 291.263 294.607 292.223 289.061V262.289L290.212 262.275Z" fill="url(#paint2_linear_104_3872)"/>
<path d="M179.972 341.427C242.392 341.427 292.994 306.002 292.994 262.303C292.994 218.604 242.392 183.178 179.972 183.178C117.551 183.178 66.9497 218.604 66.9497 262.303C66.9497 306.002 117.551 341.427 179.972 341.427Z" fill="url(#paint3_linear_104_3872)"/>
<path opacity="0.3" d="M180.017 183.124C154.407 183.124 128.797 189.18 107.946 201.279L74.2241 290.158C79.7216 300.388 88.3142 309.967 100.058 318.191C107.637 323.423 115.638 327.7 123.936 330.953L180.017 183.124Z" fill="#91A2FA"/>
<path opacity="0.3" d="M211.682 186.349L153.668 339.259C167.688 341.567 181.872 342.022 195.972 340.614L249.371 199.857C237.335 193.425 224.669 188.885 211.682 186.349Z" fill="#91A2FA"/>
<g opacity="0.05">
<path opacity="0.05" d="M179.972 332.376C235.253 332.376 280.066 301.003 280.066 262.303C280.066 223.602 235.253 192.229 179.972 192.229C124.692 192.229 79.8779 223.602 79.8779 262.303C79.8779 301.003 124.692 332.376 179.972 332.376Z" fill="url(#paint4_linear_104_3872)"/>
<g opacity="0.05">
<path opacity="0.05" d="M1.18156 262.004L0.108887 261.246L174.486 139.172L175.559 139.931L1.18156 262.004Z" fill="#91A2FA"/>
<path opacity="0.05" d="M4.25432 264.145L3.18164 263.4L177.559 141.326L178.631 142.072L4.25432 264.145Z" fill="#91A2FA"/>
<path opacity="0.05" d="M7.32756 266.3L6.25488 265.555L180.632 143.481L181.705 144.226L7.32756 266.3Z" fill="#91A2FA"/>
<path opacity="0.05" d="M10.3998 268.454L9.32715 267.708L183.704 145.635L184.777 146.38L10.3998 268.454Z" fill="#91A2FA"/>
<path opacity="0.05" d="M13.4731 270.608L12.4004 269.849L186.778 147.776L187.85 148.535L13.4731 270.608Z" fill="#91A2FA"/>
<path opacity="0.05" d="M16.5453 272.748L15.4727 272.003L189.85 149.93L190.922 150.675L16.5453 272.748Z" fill="#91A2FA"/>
<path opacity="0.05" d="M19.6181 274.903L18.5454 274.157L192.923 152.084L193.984 152.829L19.6181 274.903Z" fill="#91A2FA"/>
<path opacity="0.05" d="M22.6913 277.057L21.6187 276.312L195.996 154.238L197.057 154.983L22.6913 277.057Z" fill="#91A2FA"/>
<path opacity="0.05" d="M25.7641 279.212L24.6914 278.453L199.069 156.38L200.13 157.125L25.7641 279.212Z" fill="#91A2FA"/>
<path opacity="0.05" d="M28.8368 281.352L27.7642 280.607L202.141 158.534L203.203 159.279L28.8368 281.352Z" fill="#91A2FA"/>
<path opacity="0.05" d="M31.8979 283.506L30.8364 282.761L205.214 160.688L206.275 161.433L31.8979 283.506Z" fill="#91A2FA"/>
<path opacity="0.05" d="M34.9712 285.661L33.9097 284.915L208.287 162.842L209.348 163.587L34.9712 285.661Z" fill="#91A2FA"/>
<path opacity="0.05" d="M38.0439 287.801L36.9824 287.056L211.36 164.983L212.421 165.728L38.0439 287.801Z" fill="#91A2FA"/>
<path opacity="0.05" d="M41.1167 289.955L40.0552 289.21L214.432 167.137L215.494 167.882L41.1167 289.955Z" fill="#91A2FA"/>
<path opacity="0.05" d="M44.1894 292.109L43.1279 291.364L217.505 169.291L218.567 170.036L44.1894 292.109Z" fill="#91A2FA"/>
<path opacity="0.05" d="M47.2626 294.264L46.1899 293.519L220.567 171.432L221.64 172.19L47.2626 294.264Z" fill="#91A2FA"/>
<path opacity="0.05" d="M50.3349 296.418L49.2622 295.659L223.639 173.586L224.712 174.331L50.3349 296.418Z" fill="#91A2FA"/>
<path opacity="0.05" d="M53.4081 298.559L52.3354 297.814L226.713 175.741L227.785 176.486L53.4081 298.559Z" fill="#91A2FA"/>
<path opacity="0.05" d="M56.4804 300.713L55.4077 299.968L229.785 177.895L230.858 178.64L56.4804 300.713Z" fill="#91A2FA"/>
<path opacity="0.05" d="M59.5536 302.867L58.481 302.109L232.858 180.035L233.931 180.794L59.5536 302.867Z" fill="#91A2FA"/>
<path opacity="0.05" d="M62.6264 305.008L61.5537 304.263L235.931 182.189L237.004 182.934L62.6264 305.008Z" fill="#91A2FA"/>
<path opacity="0.05" d="M65.6987 307.162L64.626 306.417L239.003 184.343L240.076 185.089L65.6987 307.162Z" fill="#91A2FA"/>
<path opacity="0.05" d="M68.7719 309.317L67.6992 308.572L242.076 186.498L243.149 187.243L68.7719 309.317Z" fill="#91A2FA"/>
<path opacity="0.05" d="M71.8442 311.47L70.7715 310.725L245.149 188.638L246.221 189.397L71.8442 311.47Z" fill="#91A2FA"/>
<path opacity="0.05" d="M74.9174 313.611L73.8447 312.866L248.222 190.792L249.295 191.538L74.9174 313.611Z" fill="#91A2FA"/>
<path opacity="0.05" d="M77.9902 315.765L76.9175 315.02L251.295 192.947L252.356 193.692L77.9902 315.765Z" fill="#91A2FA"/>
<path opacity="0.05" d="M81.0634 317.92L79.9907 317.174L254.368 195.101L255.429 195.846L81.0634 317.92Z" fill="#91A2FA"/>
<path opacity="0.05" d="M84.1245 320.074L83.063 319.315L257.44 197.242L258.502 198.001L84.1245 320.074Z" fill="#91A2FA"/>
<path opacity="0.05" d="M87.1972 322.215L86.1357 321.47L260.513 199.396L261.574 200.141L87.1972 322.215Z" fill="#91A2FA"/>
<path opacity="0.05" d="M90.27 324.369L89.2085 323.623L263.586 201.55L264.647 202.295L90.27 324.369Z" fill="#91A2FA"/>
<path opacity="0.05" d="M93.3428 326.523L92.2812 325.777L266.658 203.704L267.72 204.449L93.3428 326.523Z" fill="#91A2FA"/>
<path opacity="0.05" d="M96.416 328.677L95.3545 327.919L269.732 205.845L270.793 206.59L96.416 328.677Z" fill="#91A2FA"/>
<path opacity="0.05" d="M99.4883 330.818L98.4268 330.073L272.793 207.999L273.865 208.744L99.4883 330.818Z" fill="#91A2FA"/>
<path opacity="0.05" d="M102.561 332.973L101.5 332.227L275.877 210.154L276.938 210.899L102.561 332.973Z" fill="#91A2FA"/>
<path opacity="0.05" d="M105.634 335.127L104.572 334.382L278.938 212.294L280.011 213.053L105.634 335.127Z" fill="#91A2FA"/>
<path opacity="0.05" d="M108.707 337.281L107.645 336.522L282.011 214.449L283.084 215.207L108.707 337.281Z" fill="#91A2FA"/>
<path opacity="0.05" d="M111.78 339.421L110.707 338.676L285.084 216.602L286.157 217.348L111.78 339.421Z" fill="#91A2FA"/>
<path opacity="0.05" d="M114.852 341.576L113.78 340.831L288.157 218.757L289.23 219.502L114.852 341.576Z" fill="#91A2FA"/>
<path opacity="0.05" d="M117.925 343.73L116.853 342.985L291.23 220.898L292.302 221.657L117.925 343.73Z" fill="#91A2FA"/>
<path opacity="0.05" d="M120.997 345.884L119.925 345.126L294.302 223.052L295.375 223.811L120.997 345.884Z" fill="#91A2FA"/>
<path opacity="0.05" d="M124.07 348.025L122.998 347.28L297.375 225.206L298.447 225.952L124.07 348.025Z" fill="#91A2FA"/>
<path opacity="0.05" d="M127.144 350.179L126.072 349.434L300.449 227.36L301.522 228.105L127.144 350.179Z" fill="#91A2FA"/>
<path opacity="0.05" d="M130.216 352.334L129.144 351.588L303.521 229.515L304.593 230.26L130.216 352.334Z" fill="#91A2FA"/>
<path opacity="0.05" d="M133.289 354.488L132.217 353.729L306.594 231.656L307.667 232.401L133.289 354.488Z" fill="#91A2FA"/>
<path opacity="0.05" d="M136.362 356.628L135.29 355.883L309.667 233.81L310.739 234.555L136.362 356.628Z" fill="#91A2FA"/>
<path opacity="0.05" d="M139.435 358.783L138.362 358.037L312.739 235.964L313.812 236.709L139.435 358.783Z" fill="#91A2FA"/>
<path opacity="0.05" d="M142.507 360.937L141.435 360.192L315.812 238.105L316.884 238.863L142.507 360.937Z" fill="#91A2FA"/>
<path opacity="0.05" d="M145.58 363.077L144.507 362.332L318.884 240.259L319.946 241.004L145.58 363.077Z" fill="#91A2FA"/>
<path opacity="0.05" d="M148.653 365.232L147.581 364.487L321.958 242.413L323.019 243.159L148.653 365.232Z" fill="#91A2FA"/>
<path opacity="0.05" d="M151.714 367.386L150.652 366.641L325.029 244.568L326.091 245.313L151.714 367.386Z" fill="#91A2FA"/>
<path opacity="0.05" d="M154.787 369.541L153.726 368.796L328.103 246.709L329.164 247.467L154.787 369.541Z" fill="#91A2FA"/>
<path opacity="0.05" d="M157.861 371.681L156.799 370.936L331.176 248.862L332.238 249.608L157.861 371.681Z" fill="#91A2FA"/>
<path opacity="0.05" d="M160.933 373.835L159.872 373.09L334.249 251.016L335.31 251.762L160.933 373.835Z" fill="#91A2FA"/>
<path opacity="0.05" d="M164.006 375.99L162.944 375.245L337.321 253.171L338.383 253.916L164.006 375.99Z" fill="#91A2FA"/>
<path opacity="0.05" d="M167.078 378.144L166.005 377.385L340.382 255.312L341.455 256.071L167.078 378.144Z" fill="#91A2FA"/>
<path opacity="0.05" d="M170.151 380.284L169.078 379.539L343.455 257.466L344.528 258.211L170.151 380.284Z" fill="#91A2FA"/>
<path opacity="0.05" d="M173.224 382.439L172.151 381.694L346.528 259.62L347.601 260.365L173.224 382.439Z" fill="#91A2FA"/>
<path opacity="0.05" d="M176.296 384.593L175.223 383.848L349.6 261.774L350.673 262.519L176.296 384.593Z" fill="#91A2FA"/>
<path opacity="0.05" d="M179.369 386.746L178.296 385.988L352.673 263.914L353.746 264.673L179.369 386.746Z" fill="#91A2FA"/>
<path opacity="0.05" d="M182.442 388.888L181.369 388.143L355.746 266.07L356.819 266.815L182.442 388.888Z" fill="#91A2FA"/>
<path opacity="0.05" d="M185.514 391.042L184.441 390.297L358.819 268.223L359.891 268.969L185.514 391.042Z" fill="#91A2FA"/>
</g>
</g>
<path d="M109.198 217.47C148.306 190.115 211.661 190.115 250.758 217.47C269.44 230.558 279.184 247.521 280.011 264.66C280.905 245.949 271.161 227.036 250.758 212.755C211.65 185.387 148.284 185.387 109.198 212.755C88.7948 227.036 79.0289 245.949 79.9452 264.66C80.772 247.521 90.549 230.545 109.198 217.47Z" fill="url(#paint5_linear_104_3872)"/>
<path d="M210.913 247.467C204.952 246.826 198.956 248.043 193.493 251.003C200.197 244.229 198.651 237.305 188.856 230.233L188.129 229.718C184.952 227.423 181.542 225.642 177.984 224.42C174.616 223.23 171.132 222.597 167.626 222.537C164.277 222.563 160.945 223.091 157.703 224.109C155.893 224.669 154.165 225.292 152.519 225.978L146.217 221.562L136.942 228.051L142.127 231.696C141.211 232.292 140.283 232.915 139.334 233.579L135.982 235.964L130.842 232.36L121.567 238.85L126.707 242.454L120.305 246.938L117.802 248.7L117.12 249.16L106.483 256.612L115.757 263.115L126.394 255.664L193.236 302.488L182.587 309.94L191.861 316.429L202.51 308.978L205.694 306.756L212.097 302.271L217.326 305.929L226.6 299.439L223.248 297.123L221.338 295.768L227.494 291.459L232.724 295.117L241.998 288.627L238.646 286.311L235.986 284.441C239.64 280.58 241.573 276.678 241.819 272.748C242.087 266.877 238.065 261.006 229.751 255.135L229.193 254.729C223.598 250.75 217.364 248.273 210.913 247.467ZM148.653 244.838L151.636 242.738C159.025 237.572 166.102 237.346 172.866 242.061C176.821 244.77 178.967 247.358 179.336 249.648C179.704 251.938 177.849 254.512 173.749 257.357L170.14 259.877L148.653 244.838ZM208.231 286.541L182.565 268.616L186.274 266.015C189.801 263.306 193.899 261.894 198.074 261.95C201.754 262.167 206 263.973 210.812 267.37C215.103 270.377 217.419 273.155 217.762 275.702C218.108 278.249 216.231 280.959 212.175 283.831L208.231 286.541Z" fill="url(#paint6_linear_104_3872)"/>
<path d="M121.512 229.732V236.94L126.652 233.336L121.512 229.732Z" fill="url(#paint7_linear_104_3872)"/>
<path d="M136.942 218.934V226.141L142.127 222.578L136.942 218.934Z" fill="url(#paint8_linear_104_3872)"/>
<path d="M197.594 233.349V241.911L192.945 238.457L197.594 233.349Z" fill="url(#paint9_linear_104_3872)"/>
<path d="M241.875 262.303V272.762L234.903 267.533L241.875 262.303Z" fill="url(#paint10_linear_104_3872)"/>
<path d="M210.913 238.349C204.952 237.708 198.956 238.925 193.493 241.885C200.197 235.111 198.651 228.183 188.856 221.101L188.129 220.6C184.952 218.305 181.542 216.524 177.984 215.302C174.618 214.106 171.133 213.472 167.626 213.419C164.277 213.445 160.945 213.973 157.703 214.991C155.893 215.542 154.165 216.165 152.519 216.861L146.217 212.444L136.942 218.934L142.127 222.578C141.211 223.174 140.283 223.798 139.334 224.461L135.982 226.846L130.842 223.242L121.567 229.732L126.707 233.336L120.305 237.82L117.802 239.568L117.12 240.042L106.483 247.494L115.757 253.997L126.394 246.546L193.292 293.37L182.643 300.822L191.917 307.311L202.566 299.86L205.75 297.638L212.153 293.153L217.382 296.811L226.656 290.321L223.304 288.005L221.393 286.65L227.55 282.341L232.78 285.999L242.054 279.51L238.702 277.193L236.042 275.323C239.696 271.462 241.629 267.56 241.875 263.631C242.143 257.759 238.121 251.888 229.807 246.017L229.249 245.624C223.64 241.626 217.385 239.144 210.913 238.349ZM148.653 235.72L151.636 233.62C159.025 228.454 166.102 228.228 172.866 232.943C176.821 235.653 178.967 238.24 179.336 240.53C179.704 242.82 177.849 245.394 173.749 248.239L170.14 250.759L148.653 235.72ZM208.231 277.423L182.609 259.498L186.319 256.897C189.846 254.188 193.944 252.776 198.119 252.832C201.799 253.049 206.045 254.856 210.857 258.252C215.147 261.26 217.464 264.037 217.807 266.584C218.153 269.131 216.276 271.841 212.22 274.713L208.231 277.423Z" fill="url(#paint11_linear_104_3872)"/>
<path d="M242.031 279.523V288.641L232.757 295.131V286.013L242.031 279.523Z" fill="url(#paint12_linear_104_3872)"/>
<path d="M226.6 290.321V299.44L217.326 305.93V296.811L226.6 290.321Z" fill="url(#paint13_linear_104_3872)"/>
<path d="M191.871 307.312V316.43L182.586 309.94V300.822L191.871 307.312Z" fill="url(#paint14_linear_104_3872)"/>
<path d="M106.428 247.494V256.625L115.702 263.115V253.997L106.428 247.494Z" fill="url(#paint15_linear_104_3872)"/>
<path d="M126.338 255.664V246.546L115.701 253.997V263.116L126.338 255.664Z" fill="url(#paint16_linear_104_3872)"/>
<path d="M126.338 246.546V255.664L186.721 297.936L193.235 293.37L126.338 246.546Z" fill="url(#paint17_linear_104_3872)"/>
<path d="M181.358 196.361C177.412 196.461 173.511 195.332 170.028 193.082C166.877 190.888 165.145 187.907 165.145 184.709C165.145 181.512 166.877 178.545 170.028 176.336C176.274 171.974 186.442 171.974 192.699 176.336C195.839 178.545 197.571 181.525 197.571 184.709C197.571 187.893 195.839 190.888 192.699 193.082C189.212 195.332 185.307 196.461 181.358 196.361ZM181.358 174.548C177.627 174.465 173.94 175.532 170.642 177.651C167.905 179.574 166.396 182.081 166.396 184.709C166.396 187.338 167.905 189.858 170.654 191.782C176.553 195.914 186.163 195.914 192.074 191.782C194.811 189.858 196.331 187.351 196.331 184.709C196.331 182.067 194.811 179.574 192.074 177.651C188.777 175.531 185.089 174.463 181.358 174.548Z" fill="#91A2FA"/>
<path d="M188.074 189.411C185.997 190.691 183.7 191.358 181.37 191.358C179.04 191.358 176.743 190.691 174.666 189.411C170.956 186.823 170.956 182.636 174.666 180.021C176.743 178.741 179.04 178.074 181.37 178.074C183.7 178.074 185.997 178.741 188.074 180.021C191.773 182.609 191.773 186.823 188.074 189.411Z" fill="#97A6FC"/>
<path d="M220.499 161.961L213.851 157.314L225.17 149.388L231.829 154.035L220.499 161.961Z" fill="#91A2FA"/>
<path opacity="0.8" d="M208.543 154.618L200.163 151.624L207.437 141.638L215.817 144.633L208.543 154.618Z" fill="#91A2FA"/>
<path opacity="0.6" d="M193.929 150.201L184.644 149.172L187.146 138.102L196.432 139.132L193.929 150.201Z" fill="#91A2FA"/>
<path opacity="0.4" d="M178.084 149.172L168.787 150.201L166.284 139.132L175.57 138.102L178.084 149.172Z" fill="#91A2FA"/>
<path opacity="0.2" d="M162.552 151.624L154.172 154.618L146.909 144.619L155.278 141.638L162.552 151.624Z" fill="#91A2FA"/>
<path opacity="0.1" d="M148.864 157.314L142.216 161.961L130.897 154.035L137.545 149.388L148.864 157.314Z" fill="#91A2FA"/>
<path opacity="0.2" d="M198.308 174.493L195.973 172.854L212.868 161.026L215.203 162.665L198.308 174.493Z" fill="#91A2FA"/>
<path opacity="0.4" d="M192.956 171.323L190.018 170.267L200.867 155.363L203.806 156.42L192.956 171.323Z" fill="#91A2FA"/>
<path opacity="0.6" d="M186.487 169.467L183.224 169.101L186.956 152.586L190.219 152.951L186.487 169.467Z" fill="#91A2FA"/>
<path opacity="0.8" d="M179.503 169.101L176.241 169.467L172.498 152.951L175.76 152.586L179.503 169.101Z" fill="#91A2FA"/>
<path d="M172.699 170.267L169.76 171.323L158.91 156.42L161.86 155.363L172.699 170.267Z" fill="#91A2FA"/>
<path d="M166.753 172.854L164.418 174.493L147.523 162.665L149.859 161.026L166.753 172.854Z" fill="#91A2FA"/>
<path d="M162.229 176.593L160.731 178.653L139.445 171.052L140.943 168.993L162.229 176.593Z" fill="#91A2FA"/>
<path d="M159.58 181.132L159.066 183.409L135.467 180.794L135.981 178.504L159.58 181.132Z" fill="#91A2FA"/>
<path d="M159.066 186.01L159.58 188.3L135.981 190.915L135.467 188.625L159.066 186.01Z" fill="#91A2FA"/>
<path d="M160.731 190.779L162.229 192.838L140.943 200.425L139.445 198.366L160.731 190.779Z" fill="#91A2FA"/>
<path d="M164.418 194.939L166.753 196.578L149.859 208.406L147.523 206.767L164.418 194.939Z" fill="#91A2FA"/>
<path opacity="0.6" d="M247.719 146.312C272.558 167.286 273.943 197.269 251.909 219.272L260.848 229.257C291.252 202.729 290.581 164.535 258.87 138.481L247.719 146.312Z" fill="#97A6FC"/>
<path opacity="0.2" d="M194.8 244.256C168.531 247.142 140.708 241.547 120.473 227.348C116.054 224.304 111.931 220.668 108.182 216.509L93.019 220.167C97.897 225.983 103.386 230.994 109.344 235.07C134.943 252.982 170.799 259.349 203.672 254.187L194.8 244.256Z" fill="#91A2FA"/>
<path d="M80.5936 194.831L95.7563 191.172C93.0746 173.668 101.343 155.499 120.473 142.086C152.161 119.906 202.387 118.633 236.221 138.251L247.339 130.474C207.348 106.575 147.189 107.848 109.377 134.322C85.8117 150.811 76.2246 173.383 80.5936 194.831Z" fill="#97A6FC"/>
<path d="M172.072 224.57L166.139 220.424L242.322 167.083L248.255 171.229L172.072 224.57Z" fill="#97A6FC"/>
<path opacity="0.8" d="M180.497 230.477L174.564 226.317L207.683 203.136L213.616 207.295L180.497 230.477Z" fill="#97A6FC"/>
<path opacity="0.6" d="M189.515 236.791L183.582 232.631L236.3 195.738L242.233 199.884L189.515 236.791Z" fill="#97A6FC"/>
<path opacity="0.2" d="M198.398 242.996L192.454 238.85L233.495 210.127L239.428 214.273L198.398 242.996Z" fill="#97A6FC"/>
<defs>
<linearGradient id="paint0_linear_104_3872" x1="71865.2" y1="-14149.8" x2="89608.5" y2="9629.71" gradientUnits="userSpaceOnUse">
<stop stop-color="#35068C"/>
<stop offset="0.02" stop-color="#40DDDA"/>
<stop offset="0.09" stop-color="#3AAEC0"/>
<stop offset="0.17" stop-color="#3484A9"/>
<stop offset="0.26" stop-color="#2F6195"/>
<stop offset="0.35" stop-color="#2B4486"/>
<stop offset="0.44" stop-color="#282E79"/>
<stop offset="0.54" stop-color="#261E71"/>
<stop offset="0.66" stop-color="#24156C"/>
<stop offset="0.82" stop-color="#24126A"/>
</linearGradient>
<linearGradient id="paint1_linear_104_3872" x1="49.8878" y1="286.541" x2="273.697" y2="286.541" gradientUnits="userSpaceOnUse">
<stop stop-color="#3671E9"/>
<stop offset="0.15" stop-color="#91A2FA"/>
<stop offset="0.33" stop-color="#8B97F1"/>
<stop offset="0.52" stop-color="#7366C8"/>
<stop offset="0.72" stop-color="#654CB3"/>
<stop offset="0.93" stop-color="#4127A7"/>
<stop offset="1" stop-color="#260672"/>
</linearGradient>
<linearGradient id="paint2_linear_104_3872" x1="15918.2" y1="39297.5" x2="61002.8" y2="39297.5" gradientUnits="userSpaceOnUse">
<stop stop-color="#42E8E0"/>
<stop offset="0.15" stop-color="#43E3E0"/>
<stop offset="0.33" stop-color="#45D5DF"/>
<stop offset="0.52" stop-color="#49BDDD"/>
<stop offset="0.72" stop-color="#4E9CDB"/>
<stop offset="0.93" stop-color="#5472D8"/>
<stop offset="1" stop-color="#5761D7"/>
</linearGradient>
<linearGradient id="paint3_linear_104_3872" x1="73832.9" y1="-19418.6" x2="91577" y2="4360.8" gradientUnits="userSpaceOnUse">
<stop stop-color="#654CB2"/>
<stop offset="0.02" stop-color="#40DDDA"/>
<stop offset="0.09" stop-color="#3AAEC0"/>
<stop offset="0.17" stop-color="#3484A9"/>
<stop offset="0.26" stop-color="#2F6195"/>
<stop offset="0.35" stop-color="#2B4486"/>
<stop offset="0.44" stop-color="#282E79"/>
<stop offset="0.54" stop-color="#261E71"/>
<stop offset="0.66" stop-color="#24156C"/>
<stop offset="0.82" stop-color="#24126A"/>
</linearGradient>
<linearGradient id="paint4_linear_104_3872" x1="162.329" y1="155.39" x2="243.091" y2="488.229" gradientUnits="userSpaceOnUse">
<stop stop-color="#42E8E0"/>
<stop offset="0.02" stop-color="#40DDDA"/>
<stop offset="0.09" stop-color="#3AAEC0"/>
<stop offset="0.17" stop-color="#3484A9"/>
<stop offset="0.26" stop-color="#2F6195"/>
<stop offset="0.35" stop-color="#2B4486"/>
<stop offset="0.44" stop-color="#282E79"/>
<stop offset="0.54" stop-color="#261E71"/>
<stop offset="0.66" stop-color="#24156C"/>
<stop offset="0.82" stop-color="#24126A"/>
</linearGradient>
<linearGradient id="paint5_linear_104_3872" x1="79.8893" y1="228.445" x2="280.067" y2="228.445" gradientUnits="userSpaceOnUse">
<stop stop-color="#2B237C"/>
<stop offset="1" stop-color="#180D5B"/>
</linearGradient>
<linearGradient id="paint6_linear_104_3872" x1="14364" y1="24733.5" x2="30810.1" y2="24733.5" gradientUnits="userSpaceOnUse">
<stop stop-color="#2B237C"/>
<stop offset="1" stop-color="#180D5B"/>
</linearGradient>
<linearGradient id="paint7_linear_104_3872" x1="741.95" y1="1875.37" x2="746.282" y2="1927.3" gradientUnits="userSpaceOnUse">
<stop stop-color="#2B237D"/>
<stop offset="0.02" stop-color="#40DDDA"/>
<stop offset="0.09" stop-color="#3AAEC0"/>
<stop offset="0.17" stop-color="#3484A9"/>
<stop offset="0.26" stop-color="#2F6195"/>
<stop offset="0.35" stop-color="#2B4486"/>
<stop offset="0.44" stop-color="#282E79"/>
<stop offset="0.54" stop-color="#261E71"/>
<stop offset="0.66" stop-color="#24156C"/>
<stop offset="0.82" stop-color="#24126A"/>
</linearGradient>
<linearGradient id="paint8_linear_104_3872" x1="834.479" y1="1807.12" x2="838.675" y2="1859.07" gradientUnits="userSpaceOnUse">
<stop stop-color="#2C247E"/>
<stop offset="0.02" stop-color="#40DDDA"/>
<stop offset="0.09" stop-color="#3AAEC0"/>
<stop offset="0.17" stop-color="#3484A9"/>
<stop offset="0.26" stop-color="#2F6195"/>
<stop offset="0.35" stop-color="#2B4486"/>
<stop offset="0.44" stop-color="#282E79"/>
<stop offset="0.54" stop-color="#261E71"/>
<stop offset="0.66" stop-color="#24156C"/>
<stop offset="0.82" stop-color="#24126A"/>
</linearGradient>
<linearGradient id="paint9_linear_104_3872" x1="1050.78" y1="2211.69" x2="1058.76" y2="2284.8" gradientUnits="userSpaceOnUse">
<stop stop-color="#2B237C"/>
<stop offset="1" stop-color="#180D5B"/>
</linearGradient>
<linearGradient id="paint10_linear_104_3872" x1="1772.73" y1="2940.68" x2="1833.57" y2="2949.2" gradientUnits="userSpaceOnUse">
<stop stop-color="#2B237C"/>
<stop offset="1" stop-color="#180D5B"/>
</linearGradient>
<linearGradient id="paint11_linear_104_3872" x1="15069.4" y1="22887.7" x2="67201.8" y2="38500.4" gradientUnits="userSpaceOnUse">
<stop stop-color="#654DB3"/>
<stop offset="0.0899" stop-color="#40DDDA"/>
<stop offset="0.09" stop-color="#E9E9FE"/>
<stop offset="0.17" stop-color="#654DB3"/>
<stop offset="0.26" stop-color="#2F6195"/>
<stop offset="0.35" stop-color="#2B4486"/>
<stop offset="0.44" stop-color="#282E79"/>
<stop offset="0.54" stop-color="#261E71"/>
<stop offset="0.66" stop-color="#24156C"/>
<stop offset="0.82" stop-color="#24126A"/>
</linearGradient>
<linearGradient id="paint12_linear_104_3872" x1="2257.96" y1="4510.25" x2="2358.45" y2="4522.77" gradientUnits="userSpaceOnUse">
<stop stop-color="#2B237C"/>
<stop offset="1" stop-color="#180D5B"/>
</linearGradient>
<linearGradient id="paint13_linear_104_3872" x1="2114.54" y1="4645.45" x2="2215.03" y2="4657.97" gradientUnits="userSpaceOnUse">
<stop stop-color="#2B237C"/>
<stop offset="1" stop-color="#180D5B"/>
</linearGradient>
<linearGradient id="paint14_linear_104_3872" x1="1784.78" y1="4773.94" x2="1908.58" y2="4789.39" gradientUnits="userSpaceOnUse">
<stop stop-color="#2B237C"/>
<stop offset="1" stop-color="#180D5B"/>
</linearGradient>
<linearGradient id="paint15_linear_104_3872" x1="1116.11" y1="3998.09" x2="1141.47" y2="4251.86" gradientUnits="userSpaceOnUse">
<stop stop-color="#2C247D"/>
<stop offset="0.02" stop-color="#40DDDA"/>
<stop offset="0.09" stop-color="#3AAEC0"/>
<stop offset="0.17" stop-color="#3484A9"/>
<stop offset="0.26" stop-color="#2F6195"/>
<stop offset="0.35" stop-color="#2B4486"/>
<stop offset="0.44" stop-color="#282E79"/>
<stop offset="0.54" stop-color="#261E71"/>
<stop offset="0.66" stop-color="#24156C"/>
<stop offset="0.82" stop-color="#24126A"/>
</linearGradient>
<linearGradient id="paint16_linear_104_3872" x1="1368.78" y1="4222.85" x2="1392.93" y2="4484.68" gradientUnits="userSpaceOnUse">
<stop stop-color="#2B237C"/>
<stop offset="1" stop-color="#180D5B"/>
</linearGradient>
<linearGradient id="paint17_linear_104_3872" x1="10241.2" y1="12198.3" x2="10372" y2="15079.3" gradientUnits="userSpaceOnUse">
<stop stop-color="#91A2FA"/>
<stop offset="0.0199" stop-color="#91A2FA"/>
<stop offset="0.02" stop-color="#654DB3"/>
<stop offset="0.09" stop-color="#654DB3"/>
<stop offset="0.17" stop-color="#654DB3"/>
<stop offset="0.26" stop-color="#654CB3"/>
<stop offset="0.35" stop-color="#35068C"/>
<stop offset="0.44" stop-color="#35068C"/>
<stop offset="0.54" stop-color="#35068C"/>
<stop offset="0.66" stop-color="#35068C"/>
<stop offset="0.82" stop-color="#35068C"/>
</linearGradient>
</defs>
</svg>
